<svg width="73" height="72" viewBox="0 0 73 72" fill="none" xmlns="http://www.w3.org/2000/svg">
<g clip-path="url(#clip0_540_989)">
<path d="M42.75 22.5H58.5V27H42.75V22.5Z" fill="#23A6F0"/>
<path d="M42.75 33.75H58.5V38.25H42.75V33.75Z" fill="#23A6F0"/>
<path d="M42.75 45H58.5V49.5H42.75V45Z" fill="#23A6F0"/>
<path d="M13.5 22.5H29.25V27H13.5V22.5Z" fill="#23A6F0"/>
<path d="M13.5 33.75H29.25V38.25H13.5V33.75Z" fill="#23A6F0"/>
<path d="M13.5 45H29.25V49.5H13.5V45Z" fill="#23A6F0"/>
<path d="M63 11.25H9C7.80689 11.2512 6.66299 11.7257 5.81934 12.5693C4.97568 13.413 4.50119 14.5569 4.5 15.75V56.25C4.50119 57.4431 4.97568 58.587 5.81934 59.4307C6.66299 60.2743 7.80689 60.7488 9 60.75H63C64.1931 60.7488 65.337 60.2743 66.1807 59.4307C67.0243 58.587 67.4988 57.4431 67.5 56.25V15.75C67.4988 14.5569 67.0243 13.413 66.1807 12.5693C65.337 11.7257 64.1931 11.2512 63 11.25ZM9 15.75H33.75V56.25H9V15.75ZM38.25 56.25V15.75H63V56.25H38.25Z" fill="#23A6F0"/>
</g>
<defs>
<clipPath id="clip0_540_989">
<rect width="72" height="72" fill="white" transform="translate(0.5)"/>
</clipPath>
</defs>
</svg>
