<svg width="72" height="72" viewBox="0 0 72 72" fill="none" xmlns="http://www.w3.org/2000/svg">
<g clip-path="url(#clip0_540_1002)">
<path d="M65.7599 19.86C65.4555 19.127 64.8729 18.5444 64.1399 18.24C63.7792 18.0863 63.3919 18.0047 62.9999 18H47.9999C47.2042 18 46.4412 18.3161 45.8786 18.8787C45.3159 19.4413 44.9999 20.2044 44.9999 21C44.9999 21.7956 45.3159 22.5587 45.8786 23.1213C46.4412 23.6839 47.2042 24 47.9999 24H55.7699L38.9999 40.77L29.1299 30.87C28.851 30.5888 28.5192 30.3656 28.1536 30.2133C27.788 30.061 27.3959 29.9826 26.9999 29.9826C26.6038 29.9826 26.2117 30.061 25.8461 30.2133C25.4806 30.3656 25.1488 30.5888 24.8699 30.87L6.86988 48.87C6.58869 49.1489 6.36551 49.4807 6.2132 49.8463C6.0609 50.2118 5.98248 50.604 5.98248 51C5.98248 51.396 6.0609 51.7882 6.2132 52.1537C6.36551 52.5193 6.58869 52.8511 6.86988 53.13C7.14877 53.4112 7.48057 53.6344 7.84615 53.7867C8.21173 53.939 8.60384 54.0174 8.99988 54.0174C9.39591 54.0174 9.78803 53.939 10.1536 53.7867C10.5192 53.6344 10.851 53.4112 11.1299 53.13L26.9999 37.23L36.8699 47.13C37.1488 47.4112 37.4806 47.6344 37.8461 47.7867C38.2117 47.939 38.6038 48.0174 38.9999 48.0174C39.3959 48.0174 39.788 47.939 40.1536 47.7867C40.5192 47.6344 40.851 47.4112 41.1299 47.13L59.9999 28.23V36C59.9999 36.7956 60.3159 37.5587 60.8786 38.1213C61.4412 38.6839 62.2042 39 62.9999 39C63.7955 39 64.5586 38.6839 65.1212 38.1213C65.6838 37.5587 65.9999 36.7956 65.9999 36V21C65.9951 20.608 65.9136 20.2207 65.7599 19.86Z" fill="#23A6F0"/>
</g>
<defs>
<clipPath id="clip0_540_1002">
<rect width="72" height="72" fill="white"/>
</clipPath>
</defs>
</svg>
